<?xml version="1.0" standalone="no"?>
<!DOCTYPE svg PUBLIC "-//W3C//DTD SVG 20010904//EN"
 "http://www.w3.org/TR/2001/REC-SVG-20010904/DTD/svg10.dtd">
<svg version="1.0" xmlns="http://www.w3.org/2000/svg"
 width="16.000000pt" height="16.000000pt" viewBox="0 0 16.000000 16.000000"
 preserveAspectRatio="xMidYMid meet">
<metadata>
Created by potrace 1.11, written by Peter Selinger 2001-2013
</metadata>
<g transform="translate(0.000000,16.000000) scale(0.001563,-0.001563)"
fill="#000000" stroke="none">
<path d="M0 5120 l0 -5120 5120 0 5120 0 0 5120 0 5120 -5120 0 -5120 0 0
-5120z m4037 910 c863 -2000 913 -2119 978 -2313 25 -73 48 -133 54 -135 5 -2
21 32 36 75 136 378 105 308 1030 2401 l800 1812 378 0 377 0 0 -2625 0 -2625
-300 0 -300 0 0 1843 c0 1818 3 2051 35 2486 9 112 13 206 10 209 -6 6 -5 7
-49 -159 -20 -75 -51 -179 -69 -230 -18 -52 -430 -1006 -917 -2122 l-884
-2028 -149 3 -150 3 -879 2005 c-483 1103 -895 2052 -914 2109 -20 57 -53 173
-75 259 -21 85 -42 158 -45 161 -4 3 -4 -24 0 -62 19 -189 26 -885 26 -2594
l0 -1883 -295 0 -295 0 0 2625 0 2625 403 -2 402 -3 792 -1835z"/>
</g>
</svg>
